# xmcd
#
# Track frame offsets:
#	150
#	26327
#	42977
#	65180
#	83172
#	100202
#	118430
#	139050
#	163727
#	181052
#	197402
#	218477
#	247800
#
# Disc length: 3534 seconds
# Revision: 6
# Processed by: cddbd v1.5.1PL2 Copyright (c) Steve Scherf et al.
# Submitted via: cdrLabel 7.1
#
DISCID=af0dcc0d
DTITLE=Toots Thielemans - Bluesette
DYEAR=1900
DGENRE=Jazz
TTITLE0=Killer Joe
TTITLE1=The Shadow of Your Smile
TTITLE2=Jane's Theme
TTITLE3=Nobody Does It Better
TTITLE4=Here's That Rainy Day
TTITLE5=My Ship
TTITLE6=I Won't Last a Day Without You
TTITLE7=Bluesette
TTITLE8=Quiet Evenings
TTITLE9=Days of Wine and Roses
TTITLE10=Maybe September
TTITLE11=That Misty Red Beast
TTITLE12=Rosa Turbinata
EXTD=ID3G: 8
EXTT0=
EXTT1=
EXTT2=
EXTT3=
EXTT4=tooth thielemans
EXTT5=
EXTT6=
EXTT7=
EXTT8=
EXTT9=
EXTT10=
EXTT11=
EXTT12=
PLAYORDER=
